# xmcd
#
# Track frame offsets:
#	150
#	20400
#	35185
#	46450
#	57365
#	70155
#	83600
#	103562
#	123967
#	139827
#	153917
#	166725
#	176187
#	188730
#
# Disc length: 2770 seconds
#
# Revision: 0
# Processed by: cddbd v1.5.2PL0 Copyright (c) Steve Scherf et al.
# Submitted via: EasyCDDAExtractor 12.0.1.1
#
DISCID=b80ad00e
DTITLE=Various Artist - The Jordanaires...With Friends
DYEAR=1992
DGENRE=Country
TTITLE0=Johnny Logan - Elvis Medley: Trouble, Jailhouse Rock, Suspecious Minds
TTITLE0=, American Trilogy
TTITLE1=Big Guitars From Memphis - I'm Painting My Own Picture
TTITLE2=Charlie McCoy - Harmonica Jones
TTITLE3=The Jordanaires - Rocky Top
TTITLE4=Charlie McCoy - You Can't Get Off With Your Shoes On
TTITLE5=The Jordanaires - Always On My Mind
TTITLE6=The United - Guitar Man
TTITLE7=The Jordanaires - Western Medley: Back In The Saddle Again, Tumblin' T
TTITLE7=umbleweeds, High Noon, Cool Water, Back In The Saddle Again
TTITLE8=Big Guitars From Memphis - If I Had Wheels
TTITLE9=Charlie McCoy - Barefootin'
TTITLE10=Lecia - Sweet Dreams
TTITLE11=The Jordanaires - Dig A Little Deeper
TTITLE12=Charlie McCoy - Scotland
TTITLE13=The United - I'm No Good At Goodbyes
EXTD=
EXTT0=
EXTT1=
EXTT2=
EXTT3=
EXTT4=
EXTT5=
EXTT6=
EXTT7=
EXTT8=
EXTT9=
EXTT10=
EXTT11=
EXTT12=
EXTT13=
PLAYORDER=
